<svg xmlns="http://www.w3.org/2000/svg" viewBox="-1132 72.836 182.164 182.164">
  <defs>
    <style>
      .cls-1 {
        fill: #80a8cc;
      }

      .cls-2 {
        fill: #fffbf5;
        fill-rule: evenodd;
      }
    </style>
  </defs>
  <g id="Logo" transform="translate(-1265 28.836)">
    <circle id="Oval-1" class="cls-1" cx="91.082" cy="91.082" r="91.082" transform="translate(133 44)"/>
    <path id="Fill-1" class="cls-2" d="M103.961,22.6c-2.571,1.647-8.473,4.04-11.384,4.04v0A18.249,18.249,0,0,0,61.592,43.324h0c-13.673-.359-28.627-7.212-37.629-18.942-5.535,9.58-.745,20.235,5.536,24.118-2.15.162-6.108-.248-7.971-2.066-.125,6.359,2.933,14.784,14.081,17.84-2.147,1.155-5.948.824-7.6.578.58,5.368,8.1,12.385,16.317,12.385-2.93,3.389-13.952,9.535-26.322,7.58A54.845,54.845,0,0,0,46.554,92.89,50.711,50.711,0,0,0,97.643,39.58c0-.032,0-.065-.008-.1,0-.076.008-.151.008-.23s-.008-.178-.011-.266a31.489,31.489,0,0,0,8.848-9.345A31.987,31.987,0,0,1,96.358,32.51c2.67-1.441,6.626-6.161,7.6-9.915" transform="translate(161.842 77.649)"/>
  </g>
</svg>
