<svg xmlns="http://www.w3.org/2000/svg" viewBox="1047.842 1997.987 42.074 34.186">
  <defs>
    <style>
      .cls-1 {
        fill: #fffbf5;
        fill-rule: evenodd;
      }
    </style>
  </defs>
  <path id="Fill-1" class="cls-1" d="M58.877,21.759a14.032,14.032,0,0,1-5.414,1.921v0a8.678,8.678,0,0,0-14.734,7.934h0a24.039,24.039,0,0,1-17.894-9.007,8.685,8.685,0,0,0,2.632,11.469,5.58,5.58,0,0,1-3.79-.982c-.059,3.024,1.395,7.03,6.7,8.484a6.873,6.873,0,0,1-3.614.275c.276,2.553,3.85,5.889,7.759,5.889-1.393,1.611-6.635,4.534-12.517,3.6a26.08,26.08,0,0,0,13.578,3.838,24.114,24.114,0,0,0,24.294-25.35c0-.015,0-.031,0-.048,0-.036,0-.072,0-.109s0-.085-.005-.127a14.974,14.974,0,0,0,4.207-4.444,15.211,15.211,0,0,1-4.813,1.366,9.222,9.222,0,0,0,3.616-4.715" transform="translate(1029.842 1976.987)"/>
</svg>
